0
SECTION
2
HEADER
9
$INSUNITS
70
4
0
ENDSEC
0
SECTION
2
TABLES
0
TABLE
2
LTYPE
0
LTYPE
72
65
70
0
2
CONTINUOUS
3
______
73
0
40
0
0
LTYPE
72
65
70
0
2
DASHED
3
_ _ _ 
73
2
40
7.5
49
5
49
-2.5
0
LTYPE
72
65
70
0
2
DOTTED
3
. . . 
73
2
40
1.5
49
0.5
49
-1
0
ENDTAB
0
TABLE
2
LAYER
0
LAYER
2
0
70
0
62
7
6
CONTINUOUS
0
LAYER
2
1
70
0
62
1
6
DOTTED
0
LAYER
2
DIM
70
0
62
2
6
CONTINUOUS
0
LAYER
2
DASH
70
0
62
1
6
DASHED
0
LAYER
2
TEXT
70
0
62
3
6
CONTINUOUS
0
ENDTAB
0
TABLE
2
STYLE
0
STYLE
2
STANDARD
70
0
40
0
41
1
50
0
71
0
42
0
3
txt.shx
4

0
STYLE
2
JP
70
0
40
0
41
1
50
0
71
0
42
0
3
YuGothic.ttf
4

0
ENDTAB
0
ENDSEC
0
SECTION
2
BLOCKS
0
BLOCK
8
DIM
2
MKR_DIM_1
70
0
10
0
20
0
3
MKR_DIM_1
1

0
LINE
8
DIM
6
CONTINUOUS
10
120
20
30
11
120
21
42
0
LINE
8
DIM
6
CONTINUOUS
10
170
20
30
11
170
21
42
0
LINE
8
DIM
6
CONTINUOUS
10
120
20
40
11
170
21
40
0
LINE
8
DIM
6
CONTINUOUS
10
120
20
40
11
121.8543677
21
40.7492132
0
LINE
8
DIM
6
CONTINUOUS
10
120
20
40
11
121.8543677
21
39.2507868
0
LINE
8
DIM
6
CONTINUOUS
10
170
20
40
11
168.1456323
21
39.2507868
0
LINE
8
DIM
6
CONTINUOUS
10
170
20
40
11
168.1456323
21
40.7492132
0
TEXT
10
145
20
40
11
145
21
40
40
24
1
50
50
0
8
DIM
7
JP
72
4
73
0
0
ENDBLK
8
DIM
0
BLOCK
8
DIM
2
MKR_DIM_2
70
0
10
0
20
0
3
MKR_DIM_2
1

0
LINE
8
DIM
6
CONTINUOUS
10
170
20
0
11
182
21
0
0
LINE
8
DIM
6
CONTINUOUS
10
170
20
30
11
182
21
30
0
LINE
8
DIM
6
CONTINUOUS
10
180
20
0
11
180
21
30
0
LINE
8
DIM
6
CONTINUOUS
10
180
20
0
11
179.2507868
21
1.8543677
0
LINE
8
DIM
6
CONTINUOUS
10
180
20
0
11
180.7492132
21
1.8543677
0
LINE
8
DIM
6
CONTINUOUS
10
180
20
30
11
180.7492132
21
28.1456323
0
LINE
8
DIM
6
CONTINUOUS
10
180
20
30
11
179.2507868
21
28.1456323
0
TEXT
10
180
20
15
11
180
21
15
40
24
1
30
50
90
8
DIM
7
JP
72
4
73
0
0
ENDBLK
8
DIM
0
BLOCK
8
DIM
2
MKR_DIM_3
70
0
10
0
20
0
3
MKR_DIM_3
1

0
LINE
8
DIM
6
CONTINUOUS
10
170
20
0
11
135
21
0
0
LINE
8
DIM
6
CONTINUOUS
10
120
20
30
11
120
21
15
0
ARC
8
DIM
6
CONTINUOUS
10
120
20
0
40
10
50
0
51
90
0
LINE
8
DIM
6
CONTINUOUS
10
130
20
0
11
129.2507868
21
1.8543677
0
LINE
8
DIM
6
CONTINUOUS
10
130
20
0
11
130.7492132
21
1.8543677
0
LINE
8
DIM
6
CONTINUOUS
10
120
20
10
11
121.8543677
21
10.7492132
0
LINE
8
DIM
6
CONTINUOUS
10
120
20
10
11
121.8543677
21
9.2507868
0
TEXT
10
127.0710678
20
7.0710678
11
127.0710678
21
7.0710678
40
24
1
90
50
45.00000000000005
8
DIM
7
JP
72
4
73
0
0
ENDBLK
8
DIM
0
BLOCK
8
DIM
2
MKR_DIM_4
70
0
10
0
20
0
3
MKR_DIM_4
1

0
LINE
8
DIM
6
CONTINUOUS
10
50
20
20
11
73
21
20
0
LINE
8
DIM
6
CONTINUOUS
10
70
20
20
11
68.1456323
21
19.2507868
0
LINE
8
DIM
6
CONTINUOUS
10
70
20
20
11
68.1456323
21
20.7492132
0
TEXT
10
71.5
20
20
11
71.5
21
20
40
24
1
R20
50
0
8
DIM
7
JP
72
4
73
0
0
ENDBLK
8
DIM
0
BLOCK
8
DIM
2
MKR_DIM_5
70
0
10
0
20
0
3
MKR_DIM_5
1

0
LINE
8
DIM
6
CONTINUOUS
10
30
20
20
11
73
21
20
0
LINE
8
DIM
6
CONTINUOUS
10
70
20
20
11
68.1456323
21
19.2507868
0
LINE
8
DIM
6
CONTINUOUS
10
70
20
20
11
68.1456323
21
20.7492132
0
TEXT
10
71.5
20
20
11
71.5
21
20
40
24
1
D40
50
0
8
DIM
7
JP
72
4
73
0
0
ENDBLK
8
DIM
0
BLOCK
8
DIM
2
MKR_DIM_6
70
0
10
0
20
0
3
MKR_DIM_6
1

0
LINE
8
DIM
6
CONTINUOUS
10
0
20
0
11
0
21
-7
0
LINE
8
DIM
6
CONTINUOUS
10
100
20
0
11
100
21
-7
0
LINE
8
DIM
6
CONTINUOUS
10
0
20
-5
11
100
21
-5
0
LINE
8
DIM
6
CONTINUOUS
10
0
20
-5
11
1.8543677
21
-4.2507868
0
LINE
8
DIM
6
CONTINUOUS
10
0
20
-5
11
1.8543677
21
-5.7492132
0
LINE
8
DIM
6
CONTINUOUS
10
100
20
-5
11
98.1456323
21
-5.7492132
0
LINE
8
DIM
6
CONTINUOUS
10
100
20
-5
11
98.1456323
21
-4.2507868
0
TEXT
10
50
20
-5
11
50
21
-5
40
24
1
100
50
0
8
DIM
7
JP
72
4
73
0
0
ENDBLK
8
DIM
0
BLOCK
8
DIM
2
MKR_DIM_7
70
0
10
0
20
0
3
MKR_DIM_7
1

0
LINE
8
DIM
6
CONTINUOUS
10
0
20
0
11
168
21
44
0
LINE
8
DIM
6
CONTINUOUS
10
168
20
44
11
223
21
44
0
LINE
8
DIM
6
CONTINUOUS
10
0
20
0
11
1.6040436
21
1.1945895
0
LINE
8
DIM
6
CONTINUOUS
10
0
20
0
11
1.983684
21
-0.2549466
0
TEXT
10
195
20
38
11
195
21
38
40
24
1
Dimension Demo - All Types
50
0
8
DIM
7
JP
72
4
73
0
0
ENDBLK
8
DIM
0
ENDSEC
0
SECTION
2
ENTITIES
0
INSERT
8
DIM
2
MKR_DIM_1
10
0
20
0
0
INSERT
8
DIM
2
MKR_DIM_2
10
0
20
0
0
INSERT
8
DIM
2
MKR_DIM_3
10
0
20
0
0
INSERT
8
DIM
2
MKR_DIM_4
10
0
20
0
0
INSERT
8
DIM
2
MKR_DIM_5
10
0
20
0
0
INSERT
8
DIM
2
MKR_DIM_6
10
0
20
0
0
INSERT
8
DIM
2
MKR_DIM_7
10
0
20
0
0
LINE
8
DASH
6
DASHED
10
0
20
0
11
100
21
0
0
LINE
8
0
6
CONTINUOUS
10
0
20
10
11
100
21
10
0
CIRCLE
8
1
6
DOTTED
10
50
20
20
40
20
0
LINE
8
0
6
CONTINUOUS
10
120
20
0
11
170
21
0
0
LINE
8
0
6
CONTINUOUS
10
170
20
0
11
170
21
30
0
LINE
8
0
6
CONTINUOUS
10
170
20
30
11
120
21
30
0
LINE
8
0
6
CONTINUOUS
10
120
20
30
11
120
21
0
0
TEXT
10
0
20
40
11
0
21
40
40
4
1
\U+65E5\U+672C\U+8A9E\U+30C6\U+30B9\U+30C8- \U+D55C\U+AD6D\U+C5B4 \U+D0A4\U+BCF4\U+B4DC JP
50
0
8
TEXT
7
JP
72
0
73
0
0
ENDSEC
0
EOF