0
SECTION
2
HEADER
9
$INSUNITS
70
4
0
ENDSEC
0
SECTION
2
TABLES
0
TABLE
2
LTYPE
0
LTYPE
72
65
70
0
2
CONTINUOUS
3
______
73
0
40
0
0
LTYPE
72
65
70
0
2
DASHED
3
_ _ _ 
73
2
40
7.5
49
5
49
-2.5
0
LTYPE
72
65
70
0
2
DOTTED
3
. . . 
73
2
40
1.5
49
0.5
49
-1
0
LTYPE
72
65
70
0
2
CENTER
3
____ _ ____ _ 
73
4
40
31.75
49
12.7
49
-2.54
49
2.54
49
-2.54
0
LTYPE
72
65
70
0
2
CENTER2
3
__ _ __ _ 
73
4
40
15.875
49
6.35
49
-1.27
49
1.27
49
-1.27
0
LTYPE
72
65
70
0
2
CENTERX2
3
________ _ ________ _ 
73
4
40
63.5
49
25.4
49
-5.08
49
5.08
49
-5.08
0
LTYPE
72
65
70
0
2
PHANTOM
3
____ _ _ ____ _ _ 
73
6
40
38.1
49
12.7
49
-2.54
49
2.54
49
-2.54
49
2.54
49
-2.54
0
LTYPE
72
65
70
0
2
PHANTOM2
3
__ _ _ __ _ _ 
73
6
40
19.05
49
6.35
49
-1.27
49
1.27
49
-1.27
49
1.27
49
-1.27
0
LTYPE
72
65
70
0
2
PHANTOMX2
3
________ _ _ ________ _ _ 
73
6
40
76.2
49
25.4
49
-5.08
49
5.08
49
-5.08
49
5.08
49
-5.08
0
LTYPE
72
65
70
0
2
HIDDEN
3
_ _ _ _ _ 
73
2
40
9.525
49
3.175
49
-1.5875
0
LTYPE
72
65
70
0
2
HIDDEN2
3
_ _ _ _ 
73
2
40
4.7625
49
1.5875
49
-0.79375
0
LTYPE
72
65
70
0
2
HIDDENX2
3
__ __ __ __ 
73
2
40
19.05
49
6.35
49
-3.175
0
LTYPE
72
65
70
0
2
DASHDOT
3
____ . ____ . 
73
4
40
19.05
49
9.525
49
-3.175
49
0
49
-3.175
0
LTYPE
72
65
70
0
2
DASHDOT2
3
__ . __ . 
73
4
40
9.525
49
4.7625
49
-1.5875
49
0
49
-1.5875
0
LTYPE
72
65
70
0
2
DASHDOTX2
3
________ . ________ . 
73
4
40
38.1
49
19.05
49
-6.35
49
0
49
-6.35
0
LTYPE
72
65
70
0
2
BORDER
3
____ _ ____ _ ____ _ 
73
6
40
45.72
49
12.7
49
-2.54
49
12.7
49
-2.54
49
2.54
49
-2.54
0
LTYPE
72
65
70
0
2
BORDER2
3
__ _ __ _ __ _ 
73
6
40
22.86
49
6.35
49
-1.27
49
6.35
49
-1.27
49
1.27
49
-1.27
0
LTYPE
72
65
70
0
2
BORDERX2
3
________ _ ________ _ ________ _ 
73
6
40
91.44
49
25.4
49
-5.08
49
25.4
49
-5.08
49
5.08
49
-5.08
0
LTYPE
72
65
70
0
2
DIVIDE
3
____ . . ____ . . 
73
6
40
25.4
49
12.7
49
-2.54
49
0
49
-2.54
49
0
49
-2.54
0
LTYPE
72
65
70
0
2
DIVIDE2
3
__ . . __ . . 
73
6
40
12.7
49
6.35
49
-1.27
49
0
49
-1.27
49
0
49
-1.27
0
LTYPE
72
65
70
0
2
DIVIDEX2
3
________ . . ________ . . 
73
6
40
50.8
49
25.4
49
-5.08
49
0
49
-5.08
49
0
49
-5.08
0
LTYPE
72
65
70
0
2
CUSTOMDASH
3
custom dash
73
2
40
6
49
3
49
-3
0
ENDTAB
0
TABLE
2
LAYER
0
LAYER
2
0
70
0
62
7
6
CONTINUOUS
0
LAYER
2
1
70
0
62
1
6
DOTTED
0
LAYER
2
DIMENSION
70
0
62
7
6
CONTINUOUS
0
LAYER
2
DASH
70
0
62
1
6
DASHED
0
LAYER
2
CENTER
70
0
62
4
6
CENTER2
0
LAYER
2
HIDDEN
70
0
62
8
6
HIDDEN2
0
LAYER
2
PHANTOM
70
0
62
6
6
PHANTOM
0
LAYER
2
CUSTOM
70
0
62
5
6
CUSTOMDASH
0
LAYER
2
TEXT
70
0
62
3
6
CONTINUOUS
0
ENDTAB
0
TABLE
2
STYLE
0
STYLE
2
STANDARD
70
0
40
0
41
1
50
0
71
0
42
0
3
txt.shx
4

0
STYLE
2
JP
70
0
40
0
41
1
50
0
71
0
42
0
3
YuGothic.ttf
4

0
ENDTAB
0
TABLE
2
BLOCK_RECORD
70
8
0
BLOCK_RECORD
2
*Model_Space
70
0
0
BLOCK_RECORD
2
*Paper_Space
70
0
0
BLOCK_RECORD
2
*D0
70
0
0
BLOCK_RECORD
2
*D1
70
0
0
BLOCK_RECORD
2
*D2
70
0
0
BLOCK_RECORD
2
*D3
70
0
0
BLOCK_RECORD
2
*D4
70
0
0
BLOCK_RECORD
2
MKR_DIM_6
70
0
0
ENDTAB
0
TABLE
2
DIMSTYLE
70
1
0
DIMSTYLE
2
STANDARD
70
0
40
1
41
2.5
42
0.625
44
1.25
140
2.5
0
ENDTAB
0
ENDSEC
0
SECTION
2
BLOCKS
0
BLOCK
8
DIMENSION
2
*D0
70
1
10
0
20
0
3
*D0
1

0
LINE
8
DIMENSION
6
CONTINUOUS
10
0
20
0
11
0
21
-12
0
LINE
8
DIMENSION
6
CONTINUOUS
10
100
20
0
11
100
21
-12
0
LINE
8
DIMENSION
6
CONTINUOUS
10
0
20
-10
11
100
21
-10
0
LINE
8
DIMENSION
6
CONTINUOUS
10
0
20
-10
11
1.8543677
21
-9.2507868
0
LINE
8
DIMENSION
6
CONTINUOUS
10
0
20
-10
11
1.8543677
21
-10.7492132
0
LINE
8
DIMENSION
6
CONTINUOUS
10
100
20
-10
11
98.1456323
21
-10.7492132
0
LINE
8
DIMENSION
6
CONTINUOUS
10
100
20
-10
11
98.1456323
21
-9.2507868
0
TEXT
10
50
20
-10
11
50
21
-10
40
4
1
100
50
0
8
DIMENSION
7
JP
72
4
73
0
0
ENDBLK
8
DIMENSION
0
BLOCK
8
DIMENSION
2
*D1
70
1
10
0
20
0
3
*D1
1

0
LINE
8
DIMENSION
6
CONTINUOUS
10
50
20
20
11
74.8
21
20
0
LINE
8
DIMENSION
6
CONTINUOUS
10
70
20
20
11
68.1456323
21
19.2507868
0
LINE
8
DIMENSION
6
CONTINUOUS
10
70
20
20
11
68.1456323
21
20.7492132
0
TEXT
10
72.4
20
20
11
72.4
21
20
40
4
1
R20
50
0
8
DIMENSION
7
JP
72
4
73
0
0
ENDBLK
8
DIMENSION
0
BLOCK
8
DIMENSION
2
*D2
70
1
10
0
20
0
3
*D2
1

0
LINE
8
DIMENSION
6
CONTINUOUS
10
30
20
20
11
74.8
21
20
0
LINE
8
DIMENSION
6
CONTINUOUS
10
70
20
20
11
68.1456323
21
19.2507868
0
LINE
8
DIMENSION
6
CONTINUOUS
10
70
20
20
11
68.1456323
21
20.7492132
0
TEXT
10
72.4
20
20
11
72.4
21
20
40
4
1
D40
50
0
8
DIMENSION
7
JP
72
4
73
0
0
ENDBLK
8
DIMENSION
0
BLOCK
8
DIMENSION
2
*D3
70
1
10
0
20
0
3
*D3
1

0
LINE
8
DIMENSION
6
CONTINUOUS
10
120
20
30
11
120
21
42
0
LINE
8
DIMENSION
6
CONTINUOUS
10
170
20
30
11
170
21
42
0
LINE
8
DIMENSION
6
CONTINUOUS
10
120
20
40
11
170
21
40
0
LINE
8
DIMENSION
6
CONTINUOUS
10
120
20
40
11
121.8543677
21
40.7492132
0
LINE
8
DIMENSION
6
CONTINUOUS
10
120
20
40
11
121.8543677
21
39.2507868
0
LINE
8
DIMENSION
6
CONTINUOUS
10
170
20
40
11
168.1456323
21
39.2507868
0
LINE
8
DIMENSION
6
CONTINUOUS
10
170
20
40
11
168.1456323
21
40.7492132
0
TEXT
10
145
20
40
11
145
21
40
40
4
1
50
50
0
8
DIMENSION
7
JP
72
4
73
0
0
ENDBLK
8
DIMENSION
0
BLOCK
8
DIMENSION
2
*D4
70
1
10
0
20
0
3
*D4
1

0
LINE
8
DIMENSION
6
CONTINUOUS
10
170
20
0
11
158
21
0
0
LINE
8
DIMENSION
6
CONTINUOUS
10
170
20
30
11
158
21
30
0
LINE
8
DIMENSION
6
CONTINUOUS
10
160
20
0
11
160
21
30
0
LINE
8
DIMENSION
6
CONTINUOUS
10
160
20
0
11
159.2507868
21
1.8543677
0
LINE
8
DIMENSION
6
CONTINUOUS
10
160
20
0
11
160.7492132
21
1.8543677
0
LINE
8
DIMENSION
6
CONTINUOUS
10
160
20
30
11
160.7492132
21
28.1456323
0
LINE
8
DIMENSION
6
CONTINUOUS
10
160
20
30
11
159.2507868
21
28.1456323
0
TEXT
10
160
20
15
11
160
21
15
40
4
1
30
50
90
8
DIMENSION
7
JP
72
4
73
0
0
ENDBLK
8
DIMENSION
0
BLOCK
8
DIMENSION
2
MKR_DIM_6
70
0
10
0
20
0
3
MKR_DIM_6
1

0
LINE
8
DIMENSION
6
CONTINUOUS
10
170
20
30
11
190
21
45
0
LINE
8
DIMENSION
6
CONTINUOUS
10
190
20
45
11
210
21
45
0
LINE
8
DIMENSION
6
CONTINUOUS
10
170
20
30
11
171.0339663
21
31.7119912
0
LINE
8
DIMENSION
6
CONTINUOUS
10
170
20
30
11
171.9330221
21
30.5132501
0
TEXT
10
200
20
39
11
200
21
39
40
4
1
50 x 30 RECT
50
0
8
DIMENSION
7
JP
72
4
73
0
0
ENDBLK
8
DIMENSION
0
ENDSEC
0
SECTION
2
ENTITIES
0
DIMENSION
100
AcDbEntity
8
DIMENSION
100
AcDbDimension
2
*D0
10
0
20
-10
30
0
11
50
21
-10
31
0
70
160
1

71
5
3
STANDARD
42
100
140
4
210
0
220
0
230
1
100
AcDbAlignedDimension
13
0
23
0
33
0
14
100
24
0
34
0
100
AcDbRotatedDimension
50
0
0
DIMENSION
100
AcDbEntity
8
DIMENSION
100
AcDbDimension
2
*D1
10
70
20
20
30
0
11
74.8
21
20
31
0
70
36
1

71
5
3
STANDARD
42
20
140
4
210
0
220
0
230
1
100
AcDbRadialDimension
13
50
23
20
33
0
15
70
25
20
35
0
0
DIMENSION
100
AcDbEntity
8
DIMENSION
100
AcDbDimension
2
*D2
10
70
20
20
30
0
11
74.8
21
20
31
0
70
35
1

71
5
3
STANDARD
42
40
140
4
210
0
220
0
230
1
100
AcDbDiametricDimension
13
50
23
20
33
0
15
70
25
20
35
0
0
DIMENSION
100
AcDbEntity
8
DIMENSION
100
AcDbDimension
2
*D3
10
120
20
40
30
0
11
145
21
40
31
0
70
160
1

71
5
3
STANDARD
42
50
140
4
210
0
220
0
230
1
100
AcDbAlignedDimension
13
120
23
30
33
0
14
170
24
30
34
0
100
AcDbRotatedDimension
50
0
0
DIMENSION
100
AcDbEntity
8
DIMENSION
100
AcDbDimension
2
*D4
10
160
20
0
30
0
11
160
21
15
31
0
70
160
1

71
5
3
STANDARD
42
30
140
4
210
0
220
0
230
1
100
AcDbAlignedDimension
13
170
23
0
33
0
14
170
24
30
34
0
100
AcDbRotatedDimension
50
90
0
INSERT
8
DIMENSION
2
MKR_DIM_6
10
0
20
0
0
LINE
8
DASH
6
DASHED
10
0
20
0
11
100
21
0
0
LINE
8
0
6
CONTINUOUS
10
0
20
10
11
100
21
10
0
CIRCLE
8
1
6
DOTTED
10
50
20
20
40
20
0
LINE
8
CENTER
6
CENTER2
10
0
20
30
11
100
21
30
0
LINE
8
HIDDEN
6
HIDDEN2
10
0
20
40
11
100
21
40
0
LINE
8
PHANTOM
6
PHANTOM
10
0
20
50
11
100
21
50
0
LINE
8
CUSTOM
6
CUSTOMDASH
10
0
20
60
11
100
21
60
0
LINE
8
0
6
CONTINUOUS
10
120
20
0
11
170
21
0
0
LINE
8
0
6
CONTINUOUS
10
170
20
0
11
170
21
30
0
LINE
8
0
6
CONTINUOUS
10
170
20
30
11
120
21
30
0
LINE
8
0
6
CONTINUOUS
10
120
20
30
11
120
21
0
0
TEXT
10
0
20
40
11
0
21
40
40
4
1
\U+65E5\U+672C\U+8A9E\U+30C6\U+30B9\U+30C8- \U+D55C\U+AD6D\U+C5B4 \U+D0A4\U+BCF4\U+B4DC JP
50
0
8
TEXT
7
JP
72
0
73
0
0
ENDSEC
0
EOF